<svg width="24" height="24" viewBox="0 0 24 24" fill="none" xmlns="http://www.w3.org/2000/svg">
<path d="M22.8787 4.65792C23.2692 4.2674 23.2692 3.63423 22.8787 3.24371L19.9279 0.292923C19.5374 -0.0976013 18.9042 -0.0976021 18.5137 0.292922L12.2929 6.51371C11.9024 6.90423 11.2692 6.90423 10.8787 6.51371L4.65792 0.292922C4.2674 -0.0976019 3.63423 -0.097602 3.24371 0.292922L0.292923 3.24371C-0.0976013 3.63423 -0.0976021 4.2674 0.292922 4.65792L6.51371 10.8787C6.90423 11.2692 6.90423 11.9024 6.51371 12.2929L0.292922 18.5137C-0.0976019 18.9042 -0.097602 19.5374 0.292922 19.9279L3.24371 22.8787C3.63423 23.2692 4.2674 23.2692 4.65792 22.8787L10.8787 16.6579C11.2692 16.2674 11.9024 16.2674 12.2929 16.6579L18.5137 22.8787C18.9042 23.2692 19.5374 23.2692 19.9279 22.8787L22.8787 19.9279C23.2692 19.5374 23.2692 18.9042 22.8787 18.5137L16.6579 12.2929C16.2674 11.9024 16.2674 11.2692 16.6579 10.8787L22.8787 4.65792Z" fill="#235275"/>
</svg>
